<?xml version="1.0" standalone="no"?>
<!DOCTYPE svg PUBLIC "-//W3C//DTD SVG 20010904//EN"
 "http://www.w3.org/TR/2001/REC-SVG-20010904/DTD/svg10.dtd">
<svg version="1.0" xmlns="http://www.w3.org/2000/svg"
 width="19.000000pt" height="98.000000pt" viewBox="0 0 19.000000 98.000000"
 preserveAspectRatio="xMidYMid meet">

<g transform="translate(0.000000,98.000000) scale(0.100000,-0.100000)"
fill="#000000" stroke="none">
<path d="M50 890 c-2 -65 -2 -65 -14 -28 -19 62 -29 57 -22 -11 3 -35 7 -96 7
-135 1 -53 3 -63 9 -41 5 21 7 5 7 -50 0 -89 19 -165 40 -165 10 0 12 9 8 38
-5 31 -4 34 5 19 7 -11 9 -32 6 -49 -3 -16 -3 -42 1 -56 7 -27 7 -26 14 8 5
30 7 26 9 -25 1 -33 4 -51 7 -40 10 48 14 51 29 31 12 -18 14 -9 14 83 0 65
-4 100 -10 96 -5 -3 -10 0 -11 7 0 7 -4 4 -8 -7 -5 -11 -8 69 -8 178 0 109 -3
201 -7 204 -3 3 -7 -18 -7 -48 l-1 -54 -13 55 c-8 36 -13 46 -14 28 -1 -33
-27 -29 -34 5 -2 12 -5 -7 -7 -43z m17 -197 c-3 -10 -5 -4 -5 12 0 17 2 24 5
18 2 -7 2 -21 0 -30z m80 -190 c-3 -10 -5 -4 -5 12 0 17 2 24 5 18 2 -7 2 -21
0 -30z m-30 -15 c-3 -8 -6 -5 -6 6 -1 11 2 17 5 13 3 -3 4 -12 1 -19z"/>
<path d="M143 755 c0 -22 2 -30 4 -17 2 12 2 30 0 40 -3 9 -5 -1 -4 -23z"/>
<path d="M152 650 c0 -19 2 -27 5 -17 2 9 2 25 0 35 -3 9 -5 1 -5 -18z"/>
<path d="M81 221 c-1 -33 -4 -42 -15 -38 -11 5 -14 -7 -15 -56 0 -34 4 -66 8
-72 5 -5 11 -19 14 -30 4 -16 5 -14 6 6 1 30 26 46 35 23 5 -14 8 -14 21 0 8
8 15 19 15 25 0 6 7 8 15 5 12 -5 15 5 13 65 -1 38 -6 65 -10 58 -5 -8 -8 -3
-9 13 l-1 25 -8 -25 -7 -25 -5 30 c-4 26 -5 24 -7 -11 -2 -57 -28 -68 -36 -16
-11 65 -13 68 -14 23z m16 -128 c-3 -10 -5 -2 -5 17 0 19 2 27 5 18 2 -10 2
-26 0 -35z"/>
</g>
</svg>
